<?xml version="1.0" encoding="UTF-8"?>
<svg id="_レイヤー_2" data-name="レイヤー 2" xmlns="http://www.w3.org/2000/svg" viewBox="0 0 230.16 26.78">
  <defs>
    <style>
      .cls-1 {
        fill: red;
      }
    </style>
  </defs>
  <g id="_レイヤー_6" data-name=" レイヤー 6">
    <g>
      <g>
        <path class="cls-1" d="m17.51,14.11h2.92l11.21,10.06h.04v-10.06h1.89v12.44h-1.95l-12.2-10.95h-.02v10.95h-1.89v-12.44Z"/>
        <path class="cls-1" d="m39.81,21.73l-5.4-4.52h2.58l4.24,3.55,4.18-3.55h2.52l-5.5,4.56,5.71,4.78h-2.58l-4.54-3.8-4.28,3.8h-2.54l5.61-4.82h0Z"/>
        <path class="cls-1" d="m49.43,14.11h8.31c4.01,0,6.05,1.51,6.05,4.2s-1.97,4.2-5.94,4.2h-6.45v4.04h-1.97v-12.44h0Zm8.1,7c2.9,0,4.33-.87,4.33-2.74s-1.24-2.7-4.39-2.7h-6.07v5.44h6.13Z"/>
        <path class="cls-1" d="m65.01,20.36c0-3.48,2.9-6.48,8.31-6.48,5.77,0,7.79,2.89,7.79,4.88v.17h-1.85v-.08c0-1.42-1.55-3.42-5.86-3.42s-6.42,2.08-6.42,4.93c0,2.46,1.87,4.86,6.51,4.86,3.97,0,5.88-1.66,5.88-3.38v-.09h1.85v.15c0,2.27-2.35,4.88-7.73,4.88-6.24,0-8.48-3.31-8.48-6.41h0Z"/>
        <path class="cls-1" d="m83.45,24.3h2.1v2.25h-2.1v-2.25Z"/>
        <path class="cls-1" d="m88.55,14.11h1.97v10.89h9.66v1.55h-11.63v-12.44Z"/>
        <path class="cls-1" d="m101.32,13.75h2.1v2h-2.1v-2Zm.13,3.46h1.85v9.34h-1.85v-9.34Z"/>
        <path class="cls-1" d="m104.41,17.21h2.21l5.58,7.9h.02l5.5-7.9h2.12l-6.66,9.34h-2.12l-6.66-9.34h.01Z"/>
        <path class="cls-1" d="m132.71,22.33h-11.3c.15,1.61,1.32,3.01,5.02,3.01,3.15,0,4.3-.91,4.51-1.82h1.76c-.17,1.51-1.97,3.21-6.28,3.21-5.36,0-6.89-2.51-6.89-4.78,0-2.97,2.54-4.93,6.78-4.93s6.38,1.79,6.38,4.59v.72h.02Zm-1.76-1.27c0-1.57-1.43-2.65-4.6-2.65-2.94,0-4.52.96-4.87,2.7h9.47v-.06h0Z"/>
        <path class="cls-1" d="m139.33,14.11h2.31l7.2,10.87h.04l7.16-10.87h2.21l-8.31,12.44h-2.29l-8.31-12.44h-.01Z"/>
        <path class="cls-1" d="m156.91,21.9c0-2.42,2.04-4.88,6.99-4.88s6.99,2.46,6.99,4.88-1.97,4.84-6.99,4.84-6.99-2.4-6.99-4.84Zm12.14,0c0-1.74-1.41-3.4-5.14-3.4s-5.14,1.66-5.14,3.4,1.39,3.37,5.14,3.37,5.14-1.61,5.14-3.37Z"/>
        <path class="cls-1" d="m172.4,13.31h1.85v13.23h-1.85v-13.23Z"/>
        <path class="cls-1" d="m177.19,24.3h2.1v2.25h-2.1v-2.25Z"/>
        <path class="cls-1" d="m181.94,20.46c0-3.84,2.48-6.54,7.64-6.54,4.7,0,6.49,1.82,6.49,3.8,0,.19-.02.45-.04.59h-1.85c.02-.09.04-.23.04-.4,0-1.3-1.09-2.44-4.64-2.44-3.82,0-5.67,1.91-5.67,4.99,0,.53.04.93.06,1.29h.02c.31-1.8,2.14-2.57,6.01-2.57,5.31,0,6.68,1.68,6.68,3.5,0,2.08-1.55,4.06-7.14,4.06-6.38,0-7.6-3.1-7.6-6.28h0Zm12.77,2.21c0-1.19-.9-2.1-4.96-2.1s-5.44,1.27-5.44,2.33c0,.23.4,2.29,5.23,2.29,4.01,0,5.17-1.15,5.17-2.51h0Z"/>
        <path class="cls-1" d="m197.9,23.09c0-1.27.63-2.67,3.7-2.99v-.04c-2.16-.32-2.79-1.44-2.79-2.68,0-1.53,1.62-3.46,6.47-3.46s6.47,1.93,6.47,3.46c0,1.25-.63,2.36-2.79,2.68v.02c3.07.32,3.7,1.74,3.7,3.01,0,1.93-1.99,3.65-7.37,3.65s-7.37-1.72-7.37-3.65h-.02Zm12.77-.13c0-1.13-1.24-2.06-5.4-2.06s-5.4.93-5.4,2.06c0,1.34,1.6,2.23,5.4,2.23s5.4-.89,5.4-2.23Zm-.78-5.46c0-1.04-1.22-2.02-4.62-2.02s-4.62.98-4.62,2.02c0,1.17,1.22,2,4.62,2s4.62-.83,4.62-2Z"/>
      </g>
      <g>
        <path class="cls-1" d="m4.44,5.97c3.68-1.07,4.21-1.67,4.21-2.84,0-.95-.93-1.95-3.34-1.95-2.56,0-3.78.98-3.78,2.45,0,.42.08.79.13.96H.24c-.05-.19-.11-.6-.11-1.08C.13,1.64,1.75,0,5.32,0s4.85,1.71,4.85,3.1c0,1.67-1.01,2.68-4.96,3.8-3.3.94-3.47,1.05-3.49,1.54h8.75v1.18H0c0-2.03.45-2.52,4.45-3.66h-.01Z"/>
        <path class="cls-1" d="m11.83,4.85C11.83,2.1,13.75.01,17.43.01s5.63,2.09,5.63,4.84-1.63,4.93-5.63,4.93-5.6-2.32-5.6-4.93Zm9.73,0c0-2.19-1.44-3.66-4.13-3.66s-4.1,1.47-4.1,3.66c0,2.07,1.23,3.75,4.1,3.75s4.13-1.67,4.13-3.75Z"/>
        <path class="cls-1" d="m28.76,5.97c3.68-1.07,4.21-1.67,4.21-2.84,0-.95-.93-1.95-3.34-1.95-2.56,0-3.78.98-3.78,2.45,0,.42.08.79.13.96h-1.42c-.05-.19-.11-.6-.11-1.08,0-1.87,1.62-3.51,5.19-3.51s4.85,1.71,4.85,3.1c0,1.67-1.01,2.68-4.96,3.8-3.3.94-3.47,1.05-3.49,1.54h8.75v1.18h-10.47c0-2.03.45-2.52,4.45-3.66h-.01Z"/>
        <path class="cls-1" d="m44.04,7.53h-8.02v-1.21L43.98.15h1.57v6.19h2.34v1.18h-2.34v2.1h-1.5v-2.1h-.01Zm0-1.18V1.52h-.02l-6.21,4.81h6.23s0,.02,0,.02Z"/>
        <path class="cls-1" d="m49.4,7.92h1.6v1.71h-1.6v-1.71Z"/>
        <path class="cls-1" d="m53.01,4.85C53.01,2.1,54.93.01,58.61.01s5.63,2.09,5.63,4.84-1.63,4.93-5.63,4.93-5.6-2.32-5.6-4.93Zm9.73,0c0-2.19-1.44-3.66-4.13-3.66s-4.1,1.47-4.1,3.66c0,2.07,1.23,3.75,4.1,3.75s4.13-1.67,4.13-3.75Z"/>
        <path class="cls-1" d="m65.17,6.69c0-.27.03-.52.06-.63h1.38c-.02.12-.03.32-.03.48,0,1.08.93,2.06,4.07,2.06s4.26-.88,4.26-2.03c0-.79-.69-1.3-2.53-1.3h-2.58v-1.07h2.06c1.91,0,2.48-.53,2.48-1.35,0-1.04-1.18-1.66-3.57-1.66-2.99,0-3.84.92-3.84,2.05,0,.14.02.33.03.45h-1.36c-.03-.1-.08-.35-.08-.62,0-1.43,1.2-3.05,5.25-3.05,3.31,0,4.95,1.15,4.95,2.65,0,.85-.37,1.58-1.71,1.84v.03c1.66.16,2.4,1.05,2.4,2.1,0,1.77-1.65,3.14-5.79,3.14s-5.44-1.67-5.44-3.08h-.01Z"/>
        <path class="cls-1" d="m78.42,7.92h1.6v1.71h-1.6v-1.71Z"/>
        <path class="cls-1" d="m86.81,5.97c3.68-1.07,4.21-1.67,4.21-2.84,0-.95-.93-1.95-3.34-1.95-2.56,0-3.78.98-3.78,2.45,0,.42.08.79.13.96h-1.42c-.05-.19-.11-.6-.11-1.08,0-1.87,1.62-3.51,5.19-3.51s4.85,1.71,4.85,3.1c0,1.67-1.01,2.68-4.96,3.8-3.3.94-3.47,1.05-3.49,1.54h8.75v1.18h-10.47c0-2.03.45-2.52,4.45-3.66h-.01Z"/>
        <path class="cls-1" d="m94.2,4.85C94.2,2.1,96.12.01,99.8.01s5.63,2.09,5.63,4.84-1.63,4.93-5.63,4.93-5.6-2.32-5.6-4.93Zm9.73,0c0-2.19-1.44-3.66-4.13-3.66s-4.1,1.47-4.1,3.66c0,2.07,1.23,3.75,4.1,3.75s4.13-1.67,4.13-3.75Z"/>
        <path class="cls-1" d="m113.56,8.45h4.8V3.61h-3.11v-.98l2.08-.04c1.14-.03,1.3-.25,1.34-2.52h1.18v8.38h3.97v1.18h-10.28v-1.18h.02Z"/>
        <path class="cls-1" d="m134.44,1.35h-9.2V.16h11.17v1.12c-4.21,2.52-6.02,5.21-7.08,8.35h-1.76c1.14-3.28,3.7-6.31,6.87-8.28Z"/>
        <path class="cls-1" d="m138.8.96h1.6v1.71h-1.6V.96Zm0,4.96h1.6v1.71h-1.6v-1.71Z"/>
        <path class="cls-1" d="m142.74,4.85c0-2.75,1.92-4.84,5.6-4.84s5.63,2.09,5.63,4.84-1.63,4.93-5.63,4.93-5.6-2.32-5.6-4.93Zm9.73,0c0-2.19-1.44-3.66-4.13-3.66s-4.1,1.47-4.1,3.66c0,2.07,1.23,3.75,4.1,3.75s4.13-1.67,4.13-3.75Z"/>
        <path class="cls-1" d="m154.9,4.85c0-2.75,1.92-4.84,5.6-4.84s5.63,2.09,5.63,4.84-1.63,4.93-5.63,4.93-5.6-2.32-5.6-4.93Zm9.73,0c0-2.19-1.44-3.66-4.13-3.66s-4.1,1.47-4.1,3.66c0,2.07,1.23,3.75,4.1,3.75s4.13-1.67,4.13-3.75Z"/>
        <path class="cls-1" d="m170.21,3.13h4.42v.83h-4.42v-.83Z"/>
        <path class="cls-1" d="m182.52,5.97c3.68-1.07,4.21-1.67,4.21-2.84,0-.95-.93-1.95-3.34-1.95-2.56,0-3.78.98-3.78,2.45,0,.42.08.79.13.96h-1.42c-.05-.19-.11-.6-.11-1.08,0-1.87,1.62-3.51,5.19-3.51s4.85,1.71,4.85,3.1c0,1.67-1.01,2.68-4.96,3.8-3.3.94-3.47,1.05-3.49,1.54h8.75v1.18h-10.47c0-2.03.45-2.52,4.45-3.66h-.01Z"/>
        <path class="cls-1" d="m194.68,5.97c3.68-1.07,4.21-1.67,4.21-2.84,0-.95-.93-1.95-3.34-1.95-2.56,0-3.78.98-3.78,2.45,0,.42.08.79.13.96h-1.42c-.05-.19-.11-.6-.11-1.08,0-1.87,1.62-3.51,5.19-3.51s4.85,1.71,4.85,3.1c0,1.67-1.01,2.68-4.96,3.8-3.3.94-3.47,1.05-3.49,1.54h8.75v1.18h-10.47c0-2.03.45-2.52,4.45-3.66h-.01Z"/>
        <path class="cls-1" d="m203.15.96h1.6v1.71h-1.6V.96Zm0,4.96h1.6v1.71h-1.6v-1.71Z"/>
        <path class="cls-1" d="m206.77,4.85c0-2.75,1.92-4.84,5.6-4.84s5.63,2.09,5.63,4.84-1.63,4.93-5.63,4.93-5.6-2.32-5.6-4.93Zm9.73,0c0-2.19-1.44-3.66-4.13-3.66s-4.1,1.47-4.1,3.66c0,2.07,1.23,3.75,4.1,3.75s4.13-1.67,4.13-3.75Z"/>
        <path class="cls-1" d="m218.93,4.85c0-2.75,1.92-4.84,5.6-4.84s5.63,2.09,5.63,4.84-1.63,4.93-5.63,4.93-5.6-2.32-5.6-4.93Zm9.73,0c0-2.19-1.44-3.66-4.13-3.66s-4.1,1.47-4.1,3.66c0,2.07,1.23,3.75,4.1,3.75s4.13-1.67,4.13-3.75Z"/>
      </g>
    </g>
  </g>
</svg>