<?xml version="1.0" encoding="UTF-8"?>
<svg id="_レイヤー_2" data-name="レイヤー 2" xmlns="http://www.w3.org/2000/svg" viewBox="0 0 179.6 83.59">
  <defs>
    <style>
      .cls-1 {
        fill: red;
      }
    </style>
  </defs>
  <g id="_レイヤー_6" data-name=" レイヤー 6">
    <g>
      <path class="cls-1" d="m65.74,4.4c0-2.31,1.91-4.4,5.67-4.4s5.07,1.64,5.07,3.14c0,.05,0,.15-.01.29h-1.23c.01-.13.01-.18.01-.25,0-1.05-1.01-2.14-3.84-2.14s-4.36,1.54-4.36,3.38c0,1.7,1.4,3.15,4.36,3.15s3.87-1.26,3.87-2.17v-.05h-4.3v-.93h5.62v4.03h-1.23c.03-.3.08-1.06.11-1.69h-.01c-.45,1.3-2.03,1.84-4.05,1.84-3.99,0-5.67-2.08-5.67-4.2h0Z"/>
      <path class="cls-1" d="m77.98,5.69v-3.47h1.23v3.25c0,1.27.73,2.12,3.04,2.12,2.07,0,3.82-1.03,3.82-2.82v-2.55h1.23v6.23h-1.23c.03-.5.07-1.41.07-2.04h-.03c-.38,1.53-1.82,2.17-4.06,2.17-2.84,0-4.08-1.35-4.08-2.89h0Z"/>
      <path class="cls-1" d="m97.32,5.64h-7.54c.1,1.07.88,2,3.35,2,2.1,0,2.87-.61,3.01-1.21h1.18c-.11,1.01-1.32,2.14-4.19,2.14-3.57,0-4.59-1.68-4.59-3.19,0-1.98,1.69-3.29,4.52-3.29s4.26,1.2,4.26,3.06v.48h0Zm-1.18-.84c0-1.05-.95-1.76-3.07-1.76-1.96,0-3.01.64-3.25,1.8h6.32v-.04h0Z"/>
      <path class="cls-1" d="m98.41,6.38h1.18c0,.62.38,1.26,2.89,1.26s3.08-.47,3.08-1.05c0-.29-.11-.52-.56-.63s-1.68-.14-2.69-.16c-1.48-.04-2.59-.19-3.14-.44-.52-.24-.76-.72-.76-1.22,0-1.22,1.51-2.04,4.06-2.04,3.25,0,3.92,1.1,3.92,2.23h-1.18c-.01-.76-.43-1.3-2.72-1.3-1.85,0-2.86.33-2.86,1.07,0,.28.13.48.55.59.5.14,1.54.15,2.77.2,1.39.05,2.27.11,2.88.34.66.25.94.78.94,1.34,0,.92-.83,2-4.31,2s-4.06-1.27-4.06-2.19h.01Z"/>
      <path class="cls-1" d="m108.79,6.03v-2.82h-1.47v-.98h1.16c.25,0,.34-.11.36-.42l.08-1h1.09v1.41h4.26v.98h-4.26v2.73c0,1.01.53,1.58,2.54,1.58.59,0,1.34-.09,1.7-.16v.96c-.27.08-.98.19-1.74.19-2.75,0-3.73-1.06-3.73-2.47h.01Z"/>
      <path class="cls-1" d="m17.57,26.6h-8.07l-1.5,2.25h-1.65l6.4-9.48h1.7l6.4,9.48h-1.78l-1.5-2.25Zm-.7-1.07l-3.31-4.96h-.03l-3.31,4.96h6.66-.01Z"/>
      <path class="cls-1" d="m21.9,26.08v-3.23h-1.68v-1.12h1.33c.29,0,.38-.13.42-.48l.1-1.14h1.25v1.61h4.87v1.12h-4.87v3.13c0,1.15.61,1.8,2.9,1.8.67,0,1.54-.1,1.94-.19v1.09c-.3.09-1.12.22-1.98.22-3.14,0-4.26-1.21-4.26-2.82h-.02Z"/>
      <path class="cls-1" d="m29.12,26.49h1.34c0,.71.43,1.44,3.3,1.44s3.52-.53,3.52-1.2c0-.33-.13-.59-.64-.72s-1.92-.16-3.07-.19c-1.7-.04-2.96-.22-3.59-.5-.59-.27-.86-.82-.86-1.4,0-1.4,1.73-2.33,4.64-2.33,3.71,0,4.48,1.25,4.48,2.55h-1.34c-.02-.86-.5-1.48-3.11-1.48-2.11,0-3.26.37-3.26,1.22,0,.32.14.55.62.68.58.16,1.76.17,3.17.23,1.58.06,2.59.13,3.3.39.75.29,1.07.89,1.07,1.53,0,1.05-.94,2.29-4.93,2.29s-4.64-1.46-4.64-2.51Z"/>
      <path class="cls-1" d="m40.01,25.7v-3.96h1.41v3.72c0,1.46.83,2.42,3.47,2.42,2.37,0,4.37-1.18,4.37-3.23v-2.91h1.41v7.12h-1.41c.03-.58.08-1.61.08-2.33h-.03c-.43,1.74-2.08,2.48-4.64,2.48-3.25,0-4.66-1.54-4.66-3.3h0Z"/>
      <path class="cls-1" d="m52.08,26.49h1.34c0,.71.43,1.44,3.3,1.44s3.52-.53,3.52-1.2c0-.33-.13-.59-.64-.72s-1.92-.16-3.07-.19c-1.7-.04-2.96-.22-3.59-.5-.59-.27-.86-.82-.86-1.4,0-1.4,1.73-2.33,4.64-2.33,3.71,0,4.48,1.25,4.48,2.55h-1.34c-.02-.86-.5-1.48-3.11-1.48-2.11,0-3.26.37-3.26,1.22,0,.32.14.55.62.68.58.16,1.76.17,3.17.23,1.58.06,2.59.13,3.3.39.75.29,1.07.89,1.07,1.53,0,1.05-.94,2.29-4.93,2.29s-4.64-1.46-4.64-2.51Z"/>
      <path class="cls-1" d="m63.12,18.77h1.41v3.66c0,.49,0,.76-.02,1.4h.03c.66-1.51,2-2.23,4.61-2.23,3.38,0,4.63,1.47,4.63,3.23v4.03h-1.41v-3.7c0-1.5-.83-2.43-3.57-2.43-2.19,0-4.27.99-4.27,2.98v3.15h-1.41v-10.08h0Z"/>
      <path class="cls-1" d="m75.29,19.1h1.6v1.53h-1.6v-1.53Zm.1,2.64h1.41v7.12h-1.41v-7.12Z"/>
      <path class="cls-1" d="m87.68,20.55h-4.88v-1.18h11.27v1.18h-4.88v8.3h-1.5v-8.3h0Z"/>
      <path class="cls-1" d="m93.52,26.76c0-1.57,1.63-1.87,3.41-1.87h5.03v-.19c0-1.33-1.07-2.04-3.55-2.04s-3.26.59-3.26,1.37c0,.04,0,.09.02.19h-1.34c-.02-.13-.02-.22-.02-.25,0-1.41,1.5-2.38,4.61-2.38,3.31,0,4.96,1.31,4.96,3.24v4.02h-1.41c.05-.49.08-1.28.1-1.83h-.02c-.37,1.24-1.65,1.96-4.45,1.96s-4.07-1.02-4.07-2.22h0Zm8.44-.92v-.03h-4.85c-1.39,0-2.24.09-2.24.92,0,.5.37,1.18,2.8,1.18,3.01,0,4.29-1.04,4.29-2.07Z"/>
      <path class="cls-1" d="m104.68,25.21c0-2.03,1.87-3.62,5.23-3.62,2.43,0,3.79.59,4.16,1.76h.02v-4.58h1.41v10.08h-1.41c.05-.65.06-1.4.08-2.02h-.03c-.4,1.31-1.81,2.16-4.23,2.16-3.3,0-5.23-1.47-5.23-3.79h0Zm9.41.1v-.23c0-1.35-1.33-2.36-4.18-2.36-2.56,0-3.83,1.07-3.83,2.49,0,1.64,1.42,2.66,3.83,2.66,2.83,0,4.18-1.48,4.18-2.56Z"/>
      <path class="cls-1" d="m116.97,25.31c0-1.84,1.55-3.72,5.33-3.72s5.33,1.87,5.33,3.72-1.5,3.69-5.33,3.69-5.33-1.83-5.33-3.69Zm9.25,0c0-1.33-1.07-2.59-3.92-2.59s-3.92,1.27-3.92,2.59,1.06,2.56,3.92,2.56,3.92-1.22,3.92-2.56Z"/>
      <path class="cls-1" d="m129.1,18.77h1.41v7.07h.02l7.03-4.11h2.26l-5.71,3.23,6.02,3.89h-2.3l-4.8-3.2-2.5,1.4v1.8h-1.41v-10.08h-.02Z"/>
      <path class="cls-1" d="m140.28,25.31c0-1.84,1.55-3.72,5.33-3.72s5.33,1.87,5.33,3.72-1.5,3.69-5.33,3.69-5.33-1.83-5.33-3.69Zm9.25,0c0-1.33-1.07-2.59-3.92-2.59s-3.92,1.27-3.92,2.59,1.06,2.56,3.92,2.56,3.92-1.22,3.92-2.56Z"/>
      <path class="cls-1" d="m152.35,21.73h1.41l-.02,2.26h.03c.51-1.37,1.68-2.41,4-2.41,2.61,0,3.73,1.3,3.73,3.46,0,.49-.02.91-.03,1.09h-1.33c0-.17.02-.49.02-.73,0-1.8-.67-2.69-2.64-2.69-2.32,0-3.76,1.64-3.76,3.51v2.62h-1.41v-7.12h0Z"/>
      <path class="cls-1" d="m162.75,25.31c0-1.84,1.55-3.72,5.33-3.72s5.33,1.87,5.33,3.72-1.5,3.69-5.33,3.69-5.33-1.83-5.33-3.69Zm9.25,0c0-1.33-1.07-2.59-3.92-2.59s-3.92,1.27-3.92,2.59,1.06,2.56,3.92,2.56,3.92-1.22,3.92-2.56Z"/>
      <path class="cls-1" d="m29.84,36.57h1.5v3.99h9.44v-3.99h1.5v9.48h-1.5v-4.39h-9.44v4.39h-1.5v-9.48Z"/>
      <path class="cls-1" d="m44.14,36.3h1.6v1.53h-1.6v-1.53Zm.1,2.64h1.41v7.12h-1.41v-7.12Z"/>
      <path class="cls-1" d="m47.34,38.93h1.41l-.02,2.26h.03c.51-1.37,1.68-2.41,4-2.41,2.61,0,3.73,1.3,3.73,3.46,0,.49-.02.91-.03,1.09h-1.33c0-.17.02-.49.02-.73,0-1.8-.67-2.69-2.64-2.69-2.32,0-3.76,1.64-3.76,3.51v2.62h-1.41v-7.12h0Z"/>
      <path class="cls-1" d="m57.74,42.51c0-1.84,1.55-3.72,5.33-3.72s5.33,1.87,5.33,3.72-1.5,3.69-5.33,3.69-5.33-1.83-5.33-3.69Zm9.25,0c0-1.33-1.07-2.59-3.92-2.59s-3.92,1.27-3.92,2.59,1.06,2.56,3.92,2.56,3.92-1.22,3.92-2.56Z"/>
      <path class="cls-1" d="m69.87,35.97h1.41v7.07h.02l7.03-4.11h2.26l-5.71,3.23,6.02,3.89h-2.3l-4.8-3.2-2.5,1.4v1.8h-1.41v-10.08h-.02Z"/>
      <path class="cls-1" d="m82.03,36.3h1.6v1.53h-1.6v-1.53Zm.1,2.64h1.41v7.12h-1.41v-7.12Z"/>
      <path class="cls-1" d="m90.28,36.57h2.51l4.61,7.92h.02l4.59-7.92h2.48v9.48h-1.5v-8.51h-.02l-5.03,8.51h-1.14l-5.06-8.51h-.03v8.51h-1.44v-9.48h.01Z"/>
      <path class="cls-1" d="m106.24,43.96c0-1.57,1.63-1.87,3.41-1.87h5.03v-.19c0-1.33-1.07-2.04-3.55-2.04s-3.26.59-3.26,1.37c0,.04,0,.09.02.19h-1.34c-.02-.13-.02-.22-.02-.25,0-1.41,1.5-2.38,4.61-2.38,3.31,0,4.96,1.31,4.96,3.24v4.02h-1.41c.05-.49.08-1.28.1-1.83h-.02c-.37,1.24-1.65,1.96-4.45,1.96s-4.07-1.02-4.07-2.22h0Zm8.44-.92v-.03h-4.85c-1.39,0-2.24.09-2.24.92,0,.5.37,1.18,2.8,1.18,3.01,0,4.29-1.04,4.29-2.07Z"/>
      <path class="cls-1" d="m118.46,43.28v-3.23h-1.68v-1.12h1.33c.29,0,.38-.13.42-.48l.1-1.14h1.25v1.61h4.87v1.12h-4.87v3.13c0,1.15.61,1.8,2.9,1.8.67,0,1.54-.1,1.94-.19v1.09c-.3.09-1.12.22-1.98.22-3.14,0-4.26-1.21-4.26-2.82h-.02Z"/>
      <path class="cls-1" d="m125.68,43.69h1.34c0,.71.43,1.44,3.3,1.44s3.52-.53,3.52-1.2c0-.33-.13-.59-.64-.72s-1.92-.16-3.07-.19c-1.7-.04-2.96-.22-3.59-.5-.59-.27-.86-.82-.86-1.4,0-1.4,1.73-2.33,4.64-2.33,3.71,0,4.48,1.25,4.48,2.55h-1.34c-.02-.86-.5-1.48-3.11-1.48-2.11,0-3.26.37-3.26,1.22,0,.32.14.55.62.68.58.16,1.76.17,3.17.23,1.58.06,2.59.13,3.3.39.75.29,1.07.89,1.07,1.53,0,1.05-.94,2.29-4.93,2.29s-4.64-1.46-4.64-2.51Z"/>
      <path class="cls-1" d="m136.57,42.9v-3.96h1.41v3.72c0,1.46.83,2.42,3.47,2.42,2.37,0,4.37-1.18,4.37-3.23v-2.91h1.41v7.12h-1.41c.03-.58.08-1.61.08-2.33h-.03c-.43,1.74-2.08,2.48-4.64,2.48-3.25,0-4.66-1.54-4.66-3.3h0Z"/>
      <path class="cls-1" d="m148.83,36.3h1.6v1.53h-1.6v-1.53Zm.1,2.64h1.41v7.12h-1.41v-7.12Z"/>
      <path class="cls-1" d="m42.84,60.89h1.34c0,.71.43,1.44,3.3,1.44s3.52-.53,3.52-1.2c0-.33-.13-.59-.64-.72s-1.92-.16-3.07-.19c-1.7-.04-2.96-.22-3.59-.5-.59-.27-.86-.82-.86-1.4,0-1.4,1.73-2.33,4.64-2.33,3.71,0,4.48,1.25,4.48,2.55h-1.34c-.02-.86-.5-1.48-3.11-1.48-2.11,0-3.26.38-3.26,1.22,0,.32.14.55.62.68.58.16,1.76.17,3.17.23,1.58.06,2.59.13,3.3.39.75.29,1.07.89,1.07,1.53,0,1.05-.94,2.29-4.93,2.29s-4.64-1.45-4.64-2.51Z"/>
      <path class="cls-1" d="m53.65,59.69c0-2.02,1.71-3.7,5.14-3.7s4.71,1.48,4.71,2.94h-1.34c-.02-.95-.91-1.82-3.36-1.82s-3.73,1.14-3.73,2.58c0,1.33.94,2.58,3.62,2.58s3.5-.86,3.52-1.79h1.34c0,1.4-1.28,2.91-4.87,2.91s-5.03-1.9-5.03-3.7h0Z"/>
      <path class="cls-1" d="m64.87,60.1v-3.96h1.41v3.72c0,1.46.83,2.42,3.47,2.42,2.37,0,4.37-1.18,4.37-3.23v-2.91h1.41v7.12h-1.41c.03-.58.08-1.61.08-2.33h-.03c-.43,1.74-2.08,2.48-4.64,2.48-3.25,0-4.66-1.54-4.66-3.3h0Z"/>
      <path class="cls-1" d="m77.75,66.19v-1.11c.26.09.75.19,1.36.19,1.06,0,1.57-.35,2.61-2.02h-.27l-4.88-7.12h1.68l4.08,6.04h.03l3.62-6.04h1.54l-4.4,7.25c-1.36,2.23-2.14,3.01-4,3.01-.59,0-1.12-.12-1.36-.2h0Z"/>
      <path class="cls-1" d="m88.28,59.16c0-2.69,1.25-4.98,3.03-6.42h1.38c-1.78,1.41-3.15,3.75-3.15,6.42s1.38,4.88,3.15,6.28h-1.44c-1.78-1.43-2.96-3.57-2.96-6.28h-.01Z"/>
      <path class="cls-1" d="m92.92,56.13h1.68l4.26,6.02h.02l4.19-6.02h1.62l-5.07,7.12h-1.62l-5.07-7.12h0Z"/>
      <path class="cls-1" d="m105.56,58.47c0-2.75,1.92-4.84,5.6-4.84s5.63,2.09,5.63,4.84-1.63,4.93-5.63,4.93-5.6-2.32-5.6-4.93Zm9.73,0c0-2.19-1.44-3.66-4.13-3.66s-4.1,1.47-4.1,3.66c0,2.07,1.23,3.75,4.1,3.75s4.13-1.67,4.13-3.75Z"/>
      <path class="cls-1" d="m118.23,53.5h1.6v1.53h-1.6v-1.53Zm.1,2.64h1.41v7.12h-1.41v-7.12Z"/>
      <path class="cls-1" d="m121.27,59.61c0-2.03,1.87-3.62,5.23-3.62,2.43,0,3.79.59,4.16,1.76h.02v-4.58h1.41v10.08h-1.41c.05-.65.06-1.4.08-2.02h-.03c-.4,1.31-1.81,2.16-4.23,2.16-3.3,0-5.23-1.47-5.23-3.79h0Zm9.41.1v-.23c0-1.35-1.33-2.36-4.18-2.36-2.56,0-3.83,1.07-3.83,2.49,0,1.64,1.42,2.67,3.83,2.67,2.83,0,4.18-1.48,4.18-2.56h0Z"/>
      <path class="cls-1" d="m136.05,59.16c0-2.68-1.36-5.01-3.15-6.42h1.38c1.76,1.44,3.03,3.73,3.03,6.42s-1.2,4.85-2.96,6.28h-1.44c1.79-1.4,3.15-3.6,3.15-6.28h-.01Z"/>
      <path class="cls-1" d="m11.22,78.2H3.15l-1.5,2.25H0l6.4-9.48h1.7l6.4,9.48h-1.78l-1.5-2.25Zm-.7-1.07l-3.31-4.96h-.03l-3.31,4.96h6.66-.01Z"/>
      <path class="cls-1" d="m14.67,83.39v-1.11c.26.09.75.19,1.36.19,1.06,0,1.57-.35,2.61-2.02h-.27l-4.88-7.12h1.68l4.08,6.04h.03l3.62-6.04h1.54l-4.4,7.25c-1.36,2.23-2.14,3.01-4,3.01-.59,0-1.12-.12-1.36-.2h0Z"/>
      <path class="cls-1" d="m25.39,77.3v-3.96h1.41v3.72c0,1.46.83,2.42,3.47,2.42,2.37,0,4.37-1.18,4.37-3.23v-2.91h1.41v7.12h-1.41c.03-.58.08-1.61.08-2.33h-.03c-.43,1.74-2.08,2.48-4.64,2.48-3.25,0-4.66-1.54-4.66-3.3h0Z"/>
      <path class="cls-1" d="m37.61,73.33h1.41l-.02,2.13h.02c.54-1.54,1.76-2.28,3.75-2.28,2.14,0,3.39.94,3.68,2.22h.02c.45-1.6,1.83-2.22,3.81-2.22,2.51,0,3.76,1.2,3.76,3.15v4.11h-1.41v-3.77c0-1.51-.75-2.36-2.67-2.36-1.52,0-3.42.82-3.42,2.92v3.21h-1.41v-3.77c0-1.51-.77-2.36-2.69-2.36-1.5,0-3.41.97-3.41,2.92v3.21h-1.41v-7.12h0Z"/>
      <path class="cls-1" d="m55.44,77.3v-3.96h1.41v3.72c0,1.46.83,2.42,3.47,2.42,2.37,0,4.37-1.18,4.37-3.23v-2.91h1.41v7.12h-1.41c.03-.58.08-1.61.08-2.33h-.03c-.43,1.74-2.08,2.48-4.64,2.48-3.25,0-4.66-1.54-4.66-3.3h0Z"/>
      <path class="cls-1" d="m72.72,70.97h2.23l8.55,7.66h.03v-7.66h1.44v9.48h-1.49l-9.3-8.34h-.02v8.34h-1.44v-9.48h0Z"/>
      <path class="cls-1" d="m86.7,78.36c0-1.57,1.63-1.87,3.41-1.87h5.03v-.19c0-1.33-1.07-2.05-3.55-2.05s-3.26.59-3.26,1.37c0,.04,0,.09.02.19h-1.34c-.02-.13-.02-.22-.02-.24,0-1.41,1.5-2.38,4.61-2.38,3.31,0,4.96,1.31,4.96,3.24v4.02h-1.41c.05-.49.08-1.28.1-1.83h-.02c-.37,1.24-1.65,1.96-4.45,1.96s-4.07-1.02-4.07-2.22h0Zm8.44-.92v-.03h-4.85c-1.39,0-2.24.09-2.24.92,0,.5.37,1.18,2.8,1.18,3.01,0,4.29-1.04,4.29-2.07Z"/>
      <path class="cls-1" d="m108.61,81.16c0,1.27-1.22,2.43-5.31,2.43-4.45,0-5.55-1.04-5.55-2.22,0-.84.78-1.43,2.08-1.38h.02c-.51-.38-.67-.85-.67-1.2,0-.55.18-.97.54-1.18h0c-.91-.42-1.42-1.07-1.42-1.97,0-1.33,1.34-2.45,4.42-2.45,1.2,0,2.19.17,2.93.49l.02-.03c-.16-.13-.29-.39-.29-.65,0-.55.53-1.04,1.76-1.04.4,0,.77.06.93.1v1.08c-.16-.04-.51-.12-.87-.12-.66,0-.9.33-.9.6,0,.19.05.35.18.55.43.39.67.88.67,1.45,0,1.37-1.41,2.45-4.43,2.45-.8,0-1.5-.07-2.11-.2-.08.09-.24.32-.24.63,0,.45.35.85,1.3.85h3.84c2.46,0,3.12.92,3.12,1.79l-.02.02Zm-1.41.12c0-.49-.43-.84-2.13-.84h-3.35c-1.97,0-2.58.33-2.58.95,0,.66.96,1.14,4.15,1.14,2.98,0,3.91-.45,3.91-1.25h0Zm-7.57-5.63c0,.86.99,1.38,3.07,1.38s3.09-.59,3.09-1.38c0-.83-1.04-1.38-3.09-1.38s-3.07.63-3.07,1.38Z"/>
      <path class="cls-1" d="m109.45,78.36c0-1.57,1.63-1.87,3.41-1.87h5.03v-.19c0-1.33-1.07-2.05-3.55-2.05s-3.26.59-3.26,1.37c0,.04,0,.09.02.19h-1.34c-.02-.13-.02-.22-.02-.24,0-1.41,1.5-2.38,4.61-2.38,3.31,0,4.96,1.31,4.96,3.24v4.02h-1.41c.05-.49.08-1.28.1-1.83h-.02c-.37,1.24-1.65,1.96-4.45,1.96s-4.07-1.02-4.07-2.22h0Zm8.44-.92v-.03h-4.85c-1.39,0-2.24.09-2.24.92,0,.5.37,1.18,2.8,1.18,3.01,0,4.29-1.04,4.29-2.07Z"/>
      <path class="cls-1" d="m120.78,73.33h1.41l-.02,2.13h.02c.54-1.54,1.76-2.28,3.75-2.28,2.14,0,3.39.94,3.68,2.22h.02c.45-1.6,1.83-2.22,3.81-2.22,2.51,0,3.76,1.2,3.76,3.15v4.11h-1.41v-3.77c0-1.51-.75-2.36-2.67-2.36-1.52,0-3.42.82-3.42,2.92v3.21h-1.41v-3.77c0-1.51-.77-2.36-2.69-2.36-1.5,0-3.41.97-3.41,2.92v3.21h-1.41v-7.12h0Z"/>
      <path class="cls-1" d="m138.6,78.36c0-1.57,1.63-1.87,3.41-1.87h5.03v-.19c0-1.33-1.07-2.05-3.55-2.05s-3.26.59-3.26,1.37c0,.04,0,.09.02.19h-1.34c-.02-.13-.02-.22-.02-.24,0-1.41,1.5-2.38,4.61-2.38,3.31,0,4.96,1.31,4.96,3.24v4.02h-1.41c.05-.49.08-1.28.1-1.83h-.02c-.37,1.24-1.65,1.96-4.45,1.96s-4.07-1.02-4.07-2.22h0Zm8.44-.92v-.03h-4.85c-1.39,0-2.24.09-2.24.92,0,.5.37,1.18,2.8,1.18,3.01,0,4.29-1.04,4.29-2.07Z"/>
      <path class="cls-1" d="m150.83,77.68v-3.23h-1.68v-1.12h1.33c.29,0,.38-.13.42-.47l.1-1.14h1.25v1.61h4.87v1.12h-4.87v3.13c0,1.15.61,1.8,2.9,1.8.67,0,1.54-.1,1.94-.19v1.09c-.3.09-1.12.22-1.98.22-3.14,0-4.26-1.21-4.26-2.82h-.02Z"/>
      <path class="cls-1" d="m158.04,78.09h1.34c0,.71.43,1.44,3.3,1.44s3.52-.53,3.52-1.2c0-.33-.13-.59-.64-.72s-1.92-.16-3.07-.19c-1.7-.04-2.96-.22-3.59-.5-.59-.27-.86-.82-.86-1.4,0-1.4,1.73-2.33,4.64-2.33,3.71,0,4.48,1.25,4.48,2.55h-1.34c-.02-.86-.5-1.48-3.11-1.48-2.11,0-3.26.38-3.26,1.22,0,.32.14.55.62.68.58.16,1.76.17,3.17.23,1.58.06,2.59.13,3.3.39.75.29,1.07.89,1.07,1.53,0,1.05-.94,2.29-4.93,2.29s-4.64-1.45-4.64-2.51Z"/>
      <path class="cls-1" d="m168.94,77.3v-3.96h1.41v3.72c0,1.46.83,2.42,3.47,2.42,2.37,0,4.37-1.18,4.37-3.23v-2.91h1.41v7.12h-1.41c.03-.58.08-1.61.08-2.33h-.03c-.43,1.74-2.08,2.48-4.64,2.48-3.25,0-4.66-1.54-4.66-3.3h0Z"/>
    </g>
  </g>
</svg>