<?xml version="1.0" encoding="UTF-8"?>
<svg id="_レイヤー_2" data-name="レイヤー 2" xmlns="http://www.w3.org/2000/svg" viewBox="0 0 286.81 31.17">
  <defs>
    <style>
      .cls-1 {
        fill: red;
      }
    </style>
  </defs>
  <g id="_レイヤー_6" data-name=" レイヤー 6">
    <g>
      <path class="cls-1" d="m50.25,8.73c0-5.51,5.41-8.73,11.42-8.73,7.37,0,10.69,3.13,10.69,6.87s-2.71,6.04-5.59,6.04c-1.83,0-2.99-.87-2.53-3.03h-.04c-.62,1.72-1.76,3.03-4.49,3.03-3.01,0-4.69-1.88-4.69-4,0-3.19,2.82-5.35,6.25-5.35,2.24,0,3.39.69,3.96,1.64h.02l.46-1.45h1.78l-1.26,5.41c-.18.79-.29,1.29-.29,1.72,0,.61.31.91,1.23.91,1.8,0,3.94-1.74,3.94-4.93,0-3.43-2.93-5.84-9.46-5.84-5.26,0-10.19,2.73-10.19,7.7,0,4.38,3.76,6.71,9.75,6.71,2.93,0,5.92-.4,7.55-.91l.07.99c-1.83.57-4.71.95-7.61.95-6.51,0-10.98-2.69-10.98-7.74h.01Zm14.37-1.11l.33-1.27c-.51-.55-1.7-1.25-3.63-1.25-2.42,0-4.36,1.37-4.36,3.8,0,1.54,1.04,2.46,2.82,2.46,2.51,0,4.36-1.92,4.84-3.74Z"/>
      <path class="cls-1" d="m75.94,7.83c0-3.64,3.04-6.79,8.71-6.79,6.05,0,8.16,3.03,8.16,5.11v.18h-1.94v-.08c0-1.49-1.63-3.58-6.14-3.58s-6.73,2.18-6.73,5.17c0,2.58,1.96,5.09,6.82,5.09,4.16,0,6.16-1.74,6.16-3.55v-.1h1.94v.16c0,2.38-2.46,5.11-8.1,5.11-6.54,0-8.89-3.47-8.89-6.71h.01Z"/>
      <path class="cls-1" d="m94.47.89h2.2v2.1h-2.2V.89Zm.13,3.62h1.94v9.78h-1.94V4.51Z"/>
      <path class="cls-1" d="m98.43,4.52h1.94l-.02,3.11h.04c.71-1.88,2.31-3.31,5.5-3.31,3.59,0,5.13,1.78,5.13,4.75,0,.67-.02,1.25-.04,1.5h-1.83c0-.24.02-.67.02-1.01,0-2.48-.92-3.7-3.63-3.7-3.19,0-5.17,2.26-5.17,4.83v3.6h-1.94V4.51h0Z"/>
      <path class="cls-1" d="m111.85,9.41c0-2.77,2.36-5.09,7.06-5.09s6.47,2.04,6.47,4.04h-1.85c-.02-1.31-1.25-2.5-4.62-2.5s-5.13,1.57-5.13,3.55c0,1.82,1.3,3.54,4.97,3.54s4.82-1.19,4.84-2.46h1.85c0,1.92-1.76,4-6.69,4s-6.91-2.61-6.91-5.09h.01Z"/>
      <path class="cls-1" d="m126.83,9.96v-5.45h1.94v5.11c0,2,1.14,3.33,4.78,3.33,3.26,0,6.01-1.62,6.01-4.44v-4h1.94v9.78h-1.94c.04-.79.11-2.22.11-3.21h-.04c-.59,2.4-2.86,3.41-6.38,3.41-4.47,0-6.4-2.12-6.4-4.54h-.02Z"/>
      <path class="cls-1" d="m142.97,11.05h1.85c0,.97.59,1.98,4.53,1.98s4.84-.73,4.84-1.64c0-.46-.18-.81-.88-.99s-2.64-.22-4.22-.26c-2.33-.06-4.07-.3-4.93-.69-.81-.38-1.19-1.13-1.19-1.92,0-1.92,2.38-3.21,6.38-3.21,5.11,0,6.16,1.72,6.16,3.51h-1.85c-.02-1.19-.68-2.04-4.27-2.04-2.9,0-4.49.52-4.49,1.68,0,.44.2.75.86.93.79.22,2.42.24,4.36.32,2.18.08,3.56.18,4.53.54,1.04.4,1.47,1.23,1.47,2.1,0,1.45-1.3,3.15-6.78,3.15s-6.38-2-6.38-3.45h.01Z"/>
      <path class="cls-1" d="m167.18,2.89h-6.71v-1.62h15.49v1.62h-6.71v11.41h-2.07V2.89Z"/>
      <path class="cls-1" d="m173.91,9.43c0-2.54,2.13-5.11,7.33-5.11s7.33,2.58,7.33,5.11-2.07,5.07-7.33,5.07-7.33-2.52-7.33-5.07Zm12.72,0c0-1.82-1.47-3.57-5.39-3.57s-5.39,1.74-5.39,3.57,1.45,3.53,5.39,3.53,5.39-1.68,5.39-3.53Z"/>
      <path class="cls-1" d="m190.14.44h1.94v9.72h.02l9.66-5.64h3.1l-7.86,4.44,8.27,5.35h-3.17l-6.6-4.4-3.43,1.92v2.48h-1.94V.45h.01Z"/>
      <path class="cls-1" d="m208.16,18.34v-1.53c.35.12,1.04.26,1.87.26,1.45,0,2.16-.48,3.59-2.77h-.37l-6.71-9.78h2.31l5.61,8.3h.04l4.97-8.3h2.11l-6.05,9.96c-1.87,3.07-2.95,4.14-5.5,4.14-.81,0-1.54-.16-1.87-.28h0Z"/>
      <path class="cls-1" d="m221.91,9.43c0-2.54,2.13-5.11,7.33-5.11s7.33,2.58,7.33,5.11-2.07,5.07-7.33,5.07-7.33-2.52-7.33-5.07Zm12.72,0c0-1.82-1.47-3.57-5.39-3.57s-5.39,1.74-5.39,3.57,1.45,3.53,5.39,3.53,5.39-1.68,5.39-3.53Z"/>
    </g>
    <g>
      <path class="cls-1" d="m.06,25.98h1.41c0,.99.56,2.18,4.39,2.18s4.54-.85,4.54-1.82c0-.56-.37-.92-1.1-1.09-.83-.2-2.64-.23-3.92-.29-1.36-.06-3.2-.16-4.1-.52-.79-.32-1.28-1.01-1.28-1.87,0-1.66,1.84-3.05,5.78-3.05,4.71,0,5.62,1.57,5.62,3.27h-1.41c0-1.25-.86-2.09-4.21-2.09-2.93,0-4.27.69-4.27,1.77,0,.56.34.86.91,1.05.74.25,2.66.3,3.86.35,1.44.06,3.14.12,4.1.42.98.3,1.54,1.05,1.54,1.97,0,1.4-.91,3.08-6.05,3.08S.08,27.22.08,25.98h-.02Z"/>
      <path class="cls-1" d="m13.97,26.4v-3.23h-1.68v-1.12h1.33c.29,0,.38-.13.42-.48l.1-1.14h1.25v1.61h4.87v1.12h-4.87v3.13c0,1.15.61,1.8,2.9,1.8.67,0,1.54-.1,1.94-.19v1.09c-.3.09-1.12.22-1.98.22-3.14,0-4.26-1.21-4.26-2.82h-.02Z"/>
      <path class="cls-1" d="m21.26,26.01v-3.96h1.41v3.72c0,1.46.83,2.42,3.47,2.42,2.37,0,4.37-1.18,4.37-3.23v-2.91h1.41v7.12h-1.41c.03-.58.08-1.61.08-2.33h-.03c-.43,1.74-2.08,2.48-4.64,2.48-3.25,0-4.66-1.54-4.66-3.3h0Z"/>
      <path class="cls-1" d="m33.01,25.52c0-2.03,1.87-3.62,5.23-3.62,2.43,0,3.79.59,4.16,1.76h.02v-4.58h1.41v10.08h-1.41c.05-.65.06-1.4.08-2.02h-.03c-.4,1.31-1.81,2.16-4.23,2.16-3.3,0-5.23-1.47-5.23-3.79h0Zm9.41.1v-.23c0-1.35-1.33-2.36-4.18-2.36-2.56,0-3.82,1.07-3.82,2.49,0,1.64,1.42,2.67,3.82,2.67,2.83,0,4.18-1.48,4.18-2.56h0Z"/>
      <path class="cls-1" d="m55.01,25.95h-8.61c.11,1.22,1.01,2.29,3.83,2.29,2.4,0,3.28-.69,3.44-1.38h1.34c-.13,1.15-1.5,2.45-4.79,2.45-4.08,0-5.25-1.92-5.25-3.64,0-2.26,1.94-3.76,5.17-3.76s4.87,1.37,4.87,3.5v.55h0Zm-1.34-.96c0-1.2-1.09-2.02-3.51-2.02-2.24,0-3.44.73-3.71,2.06h7.22v-.04Z"/>
      <path class="cls-1" d="m56.09,22.05h1.41l-.02,2.09h.03c.66-1.51,2-2.23,4.61-2.23,3.38,0,4.62,1.47,4.62,3.23v4.03h-1.41v-3.7c0-1.5-.83-2.43-3.57-2.43-2.19,0-4.28.99-4.28,2.98v3.15h-1.41v-7.12h.02Z"/>
      <path class="cls-1" d="m68.81,26.4v-3.23h-1.68v-1.12h1.33c.29,0,.38-.13.42-.48l.1-1.14h1.25v1.61h4.87v1.12h-4.87v3.13c0,1.15.61,1.8,2.9,1.8.67,0,1.54-.1,1.94-.19v1.09c-.3.09-1.12.22-1.98.22-3.14,0-4.26-1.21-4.26-2.82h-.02Z"/>
      <path class="cls-1" d="m79.36,21.49h1.6v1.71h-1.6v-1.71Zm0,4.96h1.6v1.71h-1.6v-1.71Z"/>
      <path class="cls-1" d="m92.32,24.03h3.49v.75h-4.24l-.35.35v.86h4.6v.75h-4.6v1.86h-1.41v-1.86h-4.59v-.75h4.59v-.86l-.35-.35h-4.24v-.75h3.49l-3.79-3.79h1.9l3.81,3.85h.03l3.76-3.85h1.7l-3.79,3.79h0Z"/>
      <path class="cls-1" d="m103.1,25.5c3.68-1.07,4.21-1.67,4.21-2.84,0-.95-.93-1.94-3.34-1.94-2.56,0-3.78.98-3.78,2.45,0,.42.08.79.13.96h-1.42c-.05-.19-.11-.6-.11-1.08,0-1.87,1.62-3.51,5.19-3.51s4.85,1.71,4.85,3.1c0,1.67-1.01,2.68-4.96,3.8-3.3.94-3.47,1.05-3.49,1.54h8.75v1.18h-10.47c0-2.03.45-2.52,4.45-3.66h-.01Z"/>
      <path class="cls-1" d="m110.8,30.4c.85-.07,1.2-.46,1.2-1.21v-.03h-.71v-1.71h1.6v1.5c0,1.3-.62,2.07-2.1,2.22v-.76h0Z"/>
      <path class="cls-1" d="m114.56,24.38c0-2.75,1.92-4.84,5.6-4.84s5.63,2.09,5.63,4.84-1.63,4.93-5.63,4.93-5.6-2.32-5.6-4.93Zm9.73,0c0-2.19-1.44-3.66-4.13-3.66s-4.1,1.47-4.1,3.66c0,2.07,1.23,3.75,4.1,3.75s4.13-1.67,4.13-3.75Z"/>
      <path class="cls-1" d="m126.72,24.38c0-2.75,1.92-4.84,5.6-4.84s5.63,2.09,5.63,4.84-1.63,4.93-5.63,4.93-5.6-2.32-5.6-4.93Zm9.73,0c0-2.19-1.44-3.66-4.13-3.66s-4.1,1.47-4.1,3.66c0,2.07,1.23,3.75,4.1,3.75s4.13-1.67,4.13-3.75Z"/>
      <path class="cls-1" d="m138.88,24.38c0-2.75,1.92-4.84,5.6-4.84s5.63,2.09,5.63,4.84-1.63,4.93-5.63,4.93-5.6-2.32-5.6-4.93Zm9.73,0c0-2.19-1.44-3.66-4.13-3.66s-4.1,1.47-4.1,3.66c0,2.07,1.23,3.75,4.1,3.75s4.13-1.67,4.13-3.75Z"/>
      <path class="cls-1" d="m152.13,27.45h1.6v1.71h-1.6v-1.71Z"/>
      <path class="cls-1" d="m171.15,26.92h-8.07l-1.51,2.25h-1.65l6.4-9.48h1.7l6.4,9.48h-1.78l-1.51-2.25h.02Zm-.7-1.07l-3.31-4.96h-.03l-3.31,4.96h6.66-.01Z"/>
      <path class="cls-1" d="m174.59,25.52c0-2.03,1.87-3.62,5.23-3.62,2.43,0,3.79.59,4.16,1.76h.02v-4.58h1.41v10.08h-1.41c.05-.65.06-1.4.08-2.02h-.03c-.4,1.31-1.81,2.16-4.23,2.16-3.3,0-5.23-1.47-5.23-3.79h0Zm9.41.1v-.23c0-1.35-1.33-2.36-4.18-2.36-2.56,0-3.82,1.07-3.82,2.49,0,1.64,1.42,2.67,3.82,2.67,2.83,0,4.18-1.48,4.18-2.56h0Z"/>
      <path class="cls-1" d="m186.64,26.01v-3.96h1.41v3.72c0,1.46.83,2.42,3.47,2.42,2.37,0,4.37-1.18,4.37-3.23v-2.91h1.41v7.12h-1.41c.03-.58.08-1.61.08-2.33h-.03c-.43,1.74-2.08,2.48-4.64,2.48-3.25,0-4.66-1.54-4.66-3.3h0Z"/>
      <path class="cls-1" d="m198.6,19.08h1.41v10.08h-1.41v-10.08Z"/>
      <path class="cls-1" d="m202.22,26.4v-3.23h-1.68v-1.12h1.33c.29,0,.38-.13.42-.48l.1-1.14h1.25v1.61h4.87v1.12h-4.87v3.13c0,1.15.61,1.8,2.9,1.8.67,0,1.54-.1,1.94-.19v1.09c-.3.09-1.12.22-1.98.22-3.14,0-4.26-1.21-4.26-2.82h-.02Z"/>
      <path class="cls-1" d="m212.13,21.49h1.6v1.71h-1.6v-1.71Zm0,4.96h1.6v1.71h-1.6v-1.71Z"/>
      <path class="cls-1" d="m225.09,24.03h3.49v.75h-4.24l-.35.35v.86h4.59v.75h-4.59v1.86h-1.41v-1.86h-4.59v-.75h4.59v-.86l-.35-.35h-4.24v-.75h3.49l-3.79-3.79h1.9l3.81,3.85h.03l3.76-3.85h1.7l-3.79,3.79h0Z"/>
      <path class="cls-1" d="m231.42,26.22c0-.27.03-.52.06-.63h1.38c-.02.12-.03.32-.03.48,0,1.08.93,2.06,4.07,2.06s4.26-.88,4.26-2.03c0-.79-.69-1.3-2.53-1.3h-2.58v-1.07h2.06c1.91,0,2.48-.53,2.48-1.35,0-1.04-1.19-1.66-3.57-1.66-2.99,0-3.84.92-3.84,2.04,0,.14.02.33.03.45h-1.36c-.03-.1-.08-.35-.08-.62,0-1.43,1.2-3.05,5.25-3.05,3.31,0,4.95,1.15,4.95,2.65,0,.85-.37,1.58-1.71,1.84v.03c1.66.16,2.4,1.05,2.4,2.1,0,1.77-1.65,3.14-5.79,3.14s-5.44-1.67-5.44-3.08h0Z"/>
      <path class="cls-1" d="m244.2,30.4c.85-.07,1.2-.46,1.2-1.21v-.03h-.71v-1.71h1.6v1.5c0,1.3-.62,2.07-2.1,2.22v-.76h.01Z"/>
      <path class="cls-1" d="m247.64,24.38c0-2.75,1.92-4.84,5.6-4.84s5.63,2.09,5.63,4.84-1.63,4.93-5.63,4.93-5.6-2.32-5.6-4.93Zm9.73,0c0-2.19-1.44-3.66-4.13-3.66s-4.1,1.47-4.1,3.66c0,2.07,1.23,3.75,4.1,3.75s4.13-1.67,4.13-3.75Z"/>
      <path class="cls-1" d="m259.8,24.38c0-2.75,1.92-4.84,5.6-4.84s5.63,2.09,5.63,4.84-1.63,4.93-5.63,4.93-5.6-2.32-5.6-4.93Zm9.73,0c0-2.19-1.44-3.66-4.13-3.66s-4.1,1.47-4.1,3.66c0,2.07,1.23,3.75,4.1,3.75s4.13-1.67,4.13-3.75Z"/>
      <path class="cls-1" d="m271.96,24.38c0-2.75,1.92-4.84,5.6-4.84s5.63,2.09,5.63,4.84-1.63,4.93-5.63,4.93-5.6-2.32-5.6-4.93Zm9.73,0c0-2.19-1.44-3.66-4.13-3.66s-4.1,1.47-4.1,3.66c0,2.07,1.23,3.75,4.1,3.75s4.13-1.67,4.13-3.75Z"/>
      <path class="cls-1" d="m285.21,27.45h1.6v1.71h-1.6v-1.71Z"/>
    </g>
  </g>
</svg>