<?xml version="1.0" encoding="UTF-8"?>
<svg id="_レイヤー_2" data-name="レイヤー 2" xmlns="http://www.w3.org/2000/svg" viewBox="0 0 459.86 63.87">
  <defs>
    <style>
      .cls-1 {
        fill: red;
      }
    </style>
  </defs>
  <g id="_レイヤー_6" data-name=" レイヤー 6">
    <g>
      <g>
        <path class="cls-1" d="m11.47,54.09v2.62H0v-2.62h11.47Z"/>
        <path class="cls-1" d="m20.98,46.2v17.34h-3.79v-17.34h3.79Z"/>
        <path class="cls-1" d="m26.43,63.54h-4.17l7.61-15.42c.8-1.62,2.28-2.24,4.56-2.24s3.73.62,4.5,2.24l7.32,15.42h-4.21l-6.58-13.95c-.19-.41-.55-.59-1.06-.59s-.87.18-1.09.59l-6.88,13.95Z"/>
        <path class="cls-1" d="m51.26,63.54h-3.76v-13.77c0-2.31,1.7-3.88,5.2-3.88,3.08,0,4.85,1.23,5.46,3.42l3.05,10.61c.19.62.64.98,1.45.98s1.25-.36,1.45-.98l3.05-10.61c.61-2.18,2.22-3.42,5.33-3.42,3.5,0,5.2,1.57,5.2,3.88v13.77h-3.76v-13.62c0-.67-.55-1.1-1.54-1.1-.9,0-1.35.36-1.51.92l-3.12,10.61c-.67,2.29-2.15,3.5-5.14,3.5s-4.59-1.26-5.24-3.5l-3.08-10.61c-.16-.57-.64-.92-1.51-.92-1,0-1.54.44-1.54,1.1v13.62h.01Z"/>
        <path class="cls-1" d="m83.16,63.54h-4.18l7.61-15.42c.8-1.62,2.28-2.24,4.56-2.24s3.73.62,4.5,2.24l7.32,15.42h-4.21l-6.58-13.95c-.19-.41-.55-.59-1.06-.59s-.87.18-1.09.59l-6.87,13.95h0Z"/>
        <path class="cls-1" d="m121.64,46.2v3.03h-11.11c-1.96,0-2.83.85-2.83,2.06,0,1.05.67,2.06,3.21,2.06h5.08c5.91,0,7.29,2.62,7.29,5.11,0,2.93-1.96,5.09-6.91,5.09h-12.08v-3.03h12.21c2.05,0,2.99-.9,2.99-2.16,0-1.13-.74-2.16-3.4-2.16h-5.04c-5.78,0-7.13-2.6-7.13-5.01,0-2.88,1.93-4.99,6.75-4.99h10.98-.01Z"/>
        <path class="cls-1" d="m136.92,53.55l5.85-4.62,1.64,1.31-5.85,4.68,5.81,4.62-1.64,1.34-5.81-4.65-5.81,4.62-1.67-1.31,5.81-4.62-5.81-4.68,1.67-1.31,5.81,4.62Z"/>
        <path class="cls-1" d="m153.69,63.54h-4.05l6.71-14.44c.84-1.98,2.22-3.21,5.11-3.21,3.21,0,4.82,1.52,4.82,3.78v10.25c0,.59.45.98,1.09.98.58,0,1.03-.28,1.22-.72l5.27-11.08c.83-1.98,2.22-3.21,5.11-3.21,3.21,0,4.82,1.52,4.82,3.78v13.88h-3.82v-13.72c0-.62-.45-1-1.09-1-.55,0-1,.31-1.19.75l-5.27,11.08c-.84,1.98-2.25,3.21-5.14,3.21-3.18,0-4.79-1.52-4.79-3.8v-10.23c0-.62-.48-1-1.12-1-.58,0-.96.31-1.19.75l-6.49,13.98v-.03Z"/>
        <path class="cls-1" d="m189.24,63.54h-4.17l7.61-15.42c.8-1.62,2.28-2.24,4.56-2.24s3.73.62,4.5,2.24l7.32,15.42h-4.21l-6.58-13.95c-.19-.41-.55-.59-1.06-.59s-.87.18-1.09.59l-6.87,13.95h-.01Z"/>
        <path class="cls-1" d="m214.07,46.2v11.59c0,1.72,1.09,2.72,3.6,2.72h3.86c2.44,0,3.56-1,3.56-2.72v-11.59h3.73v11.82c0,3.65-2.41,5.52-7.04,5.52h-4.56c-4.62,0-7-1.88-7-5.52v-11.82h3.85Z"/>
        <path class="cls-1" d="m243.33,53.55l5.85-4.62,1.64,1.31-5.85,4.68,5.81,4.62-1.64,1.34-5.81-4.65-5.81,4.62-1.67-1.31,5.81-4.62-5.81-4.68,1.67-1.31,5.81,4.62Z"/>
        <path class="cls-1" d="m261.64,46.2v11.33c0,1.67,1.03,2.98,4.43,2.98h8.41v3.03h-8.64c-5.75,0-8-2.52-8-5.99v-11.36h3.8Z"/>
        <path class="cls-1" d="m279.92,46.2v17.34h-3.79v-17.34h3.79Z"/>
        <path class="cls-1" d="m285.38,46.2l6.58,13.95c.19.41.54.59,1.06.59s.83-.18,1.06-.59l6.91-13.95h4.21l-7.64,15.42c-.8,1.62-2.28,2.24-4.53,2.24-2.12,0-3.76-.54-4.56-2.24l-7.26-15.42h4.18,0Z"/>
        <path class="cls-1" d="m323.15,46.2v3.03h-10.86c-2.28,0-3.28.85-3.28,2.18,0,1.41,1.12,2.06,3.31,2.06h10.66v2.75h-10.76c-2.18,0-3.31.69-3.31,2.11s1.06,2.18,3.28,2.18h10.98v3.03h-10.98c-5.14,0-7.23-2.03-7.23-4.73,0-1.98,1.12-3.31,3.12-3.98-2.02-.67-3.05-2-3.05-3.91,0-2.78,2.15-4.73,7.26-4.73h10.86Z"/>
        <path class="cls-1" d="m342.9,46.2v3.03h-8.38c-4.17,0-6.01,1.67-6.01,5.65s1.8,5.63,6.01,5.63h8.38v3.03h-8.38c-6.33,0-9.79-2.85-9.79-8.66s3.5-8.69,9.79-8.69h8.38Z"/>
        <path class="cls-1" d="m355.84,46.2c6.3,0,9.8,2.88,9.8,8.71s-3.47,8.63-9.8,8.63h-2.96c-6.33,0-9.79-2.83-9.79-8.63s3.5-8.71,9.79-8.71h2.96Zm-2.96,3.03c-4.17,0-6.01,1.7-6.01,5.68s1.8,5.6,6.01,5.6h2.96c4.18,0,5.97-1.64,5.97-5.63s-1.8-5.65-5.97-5.65h-2.96Z"/>
        <path class="cls-1" d="m376.98,46.2c6.33,0,9.77,2.83,9.77,8.69s-3.41,8.66-9.77,8.66h-7.64c-1.22,0-1.8-.46-1.8-1.41v-14.52c0-.95.58-1.41,1.8-1.41h7.64Zm-5.65,14c0,.23.13.31.42.31h5.23c4.21,0,5.97-1.67,5.97-5.65s-1.77-5.63-5.97-5.63h-5.23c-.29,0-.42.08-.42.31v10.66Z"/>
        <path class="cls-1" d="m393.07,46.2v17.34h-3.79v-17.34h3.79Z"/>
        <path class="cls-1" d="m399.49,63.54h-3.79v-13.88c0-2.26,1.61-3.78,4.98-3.78,3.02,0,4.37,1.23,5.27,3.21l6.33,11.08c.26.41.67.72,1.38.72.8,0,1.29-.39,1.29-.98v-13.72h3.82v13.85c0,2.29-1.64,3.8-4.98,3.8-3.02,0-4.4-1.23-5.3-3.21l-6.33-11.08c-.29-.51-.68-.75-1.35-.75-.87,0-1.32.39-1.32,1v13.74Z"/>
        <path class="cls-1" d="m439.32,46.2v3.03h-8.93c-4.18,0-6.01,1.67-6.01,5.65s1.8,5.63,6.01,5.63h3.6c2.12,0,3.02-1.03,3.02-2.44s-.9-2.21-2.67-2.21h-4.82v-2.65h5.2c3.86,0,5.75,1.9,5.75,4.91s-1.89,5.42-6.75,5.42h-3.34c-6.33,0-9.8-2.85-9.8-8.66s3.5-8.69,9.8-8.69h8.94Z"/>
        <path class="cls-1" d="m456.73,54.09v2.62h-11.47v-2.62h11.47Z"/>
      </g>
      <g>
        <path class="cls-1" d="m40.31.7v6.72H15.67c-4.34,0-6.27,1.88-6.27,4.56,0,2.34,1.5,4.56,7.12,4.56h11.25c13.1,0,16.17,5.81,16.17,11.34,0,6.5-4.34,11.28-15.31,11.28H1.85v-6.72h27.06c4.56,0,6.62-1.99,6.62-4.79,0-2.51-1.64-4.79-7.55-4.79h-11.18C3.98,22.86.99,17.11.99,11.75.99,5.37,5.26.7,15.95.7h24.36Z"/>
        <path class="cls-1" d="m72.07.7c10.83,0,15.45,5.36,15.45,11.51,0,5.81-4.2,12.08-15.45,12.08h-14.95c-.78,0-1.21.29-1.21.97v13.9h-8.4v-15.21c0-4.33,2.28-6.1,7.55-6.1h17.3c4.77,0,6.69-2.62,6.69-5.3s-2.07-5.13-6.62-5.13h-25V.7h24.64,0Z"/>
        <path class="cls-1" d="m88.38,39.15h-9.26L96,4.96c1.78-3.59,5.06-4.96,10.11-4.96s8.26,1.37,9.97,4.96l16.24,34.19h-9.33l-14.6-30.94c-.43-.91-1.21-1.31-2.35-1.31s-1.92.4-2.42,1.31l-15.24,30.94h0Z"/>
        <path class="cls-1" d="m169.5.7v6.72h-18.59c-9.26,0-13.32,3.7-13.32,12.53s3.99,12.48,13.32,12.48h18.59v6.72h-18.59c-14.03,0-21.72-6.32-21.72-19.2S136.95.69,150.91.69h18.59Z"/>
        <path class="cls-1" d="m212.23.7v6.72h-24.07c-5.06,0-7.26,1.88-7.26,4.84,0,3.13,2.49,4.56,7.34,4.56h23.64v6.1h-23.86c-4.84,0-7.33,1.54-7.33,4.67s2.35,4.84,7.26,4.84h24.35v6.72h-24.35c-11.39,0-16.02-4.5-16.02-10.48,0-4.39,2.49-7.35,6.91-8.83-4.49-1.48-6.77-4.44-6.77-8.66,0-6.15,4.77-10.48,16.09-10.48h24.07,0Z"/>
        <path class="cls-1" d="m246.06.7c14.03,0,21.65,6.27,21.65,19.26s-7.55,19.2-21.65,19.2h-16.95c-2.71,0-3.99-1.03-3.99-3.13V3.84c0-2.11,1.28-3.13,3.99-3.13h16.95Zm-12.53,31.05c0,.51.29.68.93.68h11.61c9.33,0,13.25-3.7,13.25-12.53s-3.92-12.48-13.25-12.48h-11.61c-.64,0-.93.17-.93.68v23.64h0Z"/>
        <path class="cls-1" d="m310.3.7v6.72h-24.07c-5.06,0-7.26,1.88-7.26,4.84,0,3.13,2.49,4.56,7.33,4.56h23.64v6.1h-23.86c-4.84,0-7.33,1.54-7.33,4.67s2.35,4.84,7.26,4.84h24.35v6.72h-24.35c-11.39,0-16.02-4.5-16.02-10.48,0-4.39,2.49-7.35,6.91-8.83-4.49-1.48-6.76-4.44-6.76-8.66,0-6.15,4.77-10.48,16.09-10.48h24.07Z"/>
        <path class="cls-1" d="m339.29.7c11.32,0,16.09,4.27,16.09,10.54,0,4.44-2.42,7.12-6.91,8.55,4.56,1.48,7.12,4.33,7.12,8.77,0,6.15-4.77,10.6-16.09,10.6h-21.36c-2.71,0-3.99-1.03-3.99-3.13V3.84c0-2.11,1.28-3.13,3.99-3.13h21.15,0Zm-16.88,16.24h17.09c4.98,0,7.41-1.48,7.41-4.62s-2.21-5.01-7.33-5.01h-16.24c-.57,0-.93.23-.93.68v8.95Zm0,14.93c0,.46.36.63.93.63h16.38c5.06,0,7.41-1.88,7.41-5.01s-2.49-4.96-7.41-4.96h-17.3v9.34h-.01Z"/>
        <path class="cls-1" d="m385.58.7c10.82,0,15.45,5.36,15.45,11.51,0,4.79-2.85,9.91-10.18,11.57l11.18,15.38h-9.33l-10.97-14.87h-12.53c-.78,0-1.21.29-1.21.97v13.9h-8.4v-15.21c0-4.33,2.28-6.1,7.55-6.1h18.73c4.77,0,6.69-2.62,6.69-5.36s-2.07-5.07-6.69-5.07h-26.35V.7h26.06Z"/>
        <path class="cls-1" d="m413.21.7v38.46h-8.4V.7h8.4Z"/>
        <path class="cls-1" d="m456.23.7v6.72h-24.64c-4.34,0-6.27,1.88-6.27,4.56,0,2.34,1.5,4.56,7.12,4.56h11.25c13.1,0,16.17,5.81,16.17,11.34,0,6.5-4.34,11.28-15.31,11.28h-26.78v-6.72h27.06c4.56,0,6.62-1.99,6.62-4.79,0-2.51-1.64-4.79-7.55-4.79h-11.18c-12.82,0-15.81-5.75-15.81-11.11,0-6.38,4.27-11.05,14.96-11.05h24.36Z"/>
      </g>
    </g>
  </g>
</svg>